<svg width="769" height="582" viewBox="0 0 769 582" fill="none" xmlns="http://www.w3.org/2000/svg">
<path d="M713 0H56C25.0721 0 0 25.0721 0 56V526C0 556.928 25.0721 582 56 582H713C743.928 582 769 556.928 769 526V56C769 25.0721 743.928 0 713 0Z" fill="#301F40"/>
<path d="M723 37H47C40.3726 37 35 42.3726 35 49V533C35 539.627 40.3726 545 47 545H723C729.627 545 735 539.627 735 533V49C735 42.3726 729.627 37 723 37Z" fill="#FFFAFA"/>
<mask id="mask0_280_338" style="mask-type:alpha" maskUnits="userSpaceOnUse" x="144" y="63" width="482" height="482">
<rect x="144" y="63" width="482" height="482" fill="#D9D9D9"/>
</mask>
<g mask="url(#mask0_280_338)">
<path d="M499.852 320.866H294.115C285.902 320.866 279.243 327.699 279.243 336.128V407.349C279.243 415.778 285.902 422.611 294.115 422.611H499.852C508.066 422.611 514.724 415.778 514.724 407.349V336.128C514.724 327.699 508.066 320.866 499.852 320.866Z" fill="#BAB186"/>
<path d="M428.622 327.81H360.281C357.645 327.81 355.509 330.003 355.509 332.707V457.388C355.509 460.092 357.645 462.285 360.281 462.285H428.622C431.258 462.285 433.394 460.092 433.394 457.388V332.707C433.394 330.003 431.258 327.81 428.622 327.81Z" fill="#BF9D8E"/>
<path d="M323 559C288.732 558.838 254.477 558.684 220.21 558.522C220.136 531.027 220.062 503.532 220 476.031C220 453.733 222.899 423 245.559 423H321.347" fill="#EDBFA6"/>
<path d="M474 562C503.697 561.941 533.406 561.875 563.103 561.817C563.402 533.406 563.701 505.003 564 476.593C564 453.636 561.47 422 541.668 422H475.446" fill="#EDBFA6"/>
<path d="M486.109 423H298.891C285.144 423 274 428.367 274 434.987V558.013C274 564.633 285.144 570 298.891 570H486.109C499.856 570 511 564.633 511 558.013V434.987C511 428.367 499.856 423 486.109 423Z" fill="#7F4EC3"/>
<path d="M378.789 504.057C382.896 504.057 386.225 500.641 386.225 496.426C386.225 492.212 382.896 488.796 378.789 488.796C374.682 488.796 371.353 492.212 371.353 496.426C371.353 500.641 374.682 504.057 378.789 504.057Z" fill="#FF7442"/>
<path d="M391.183 511.688C395.29 511.688 398.62 508.271 398.62 504.057C398.62 499.843 395.29 496.426 391.183 496.426C387.076 496.426 383.747 499.843 383.747 504.057C383.747 508.271 387.076 511.688 391.183 511.688Z" fill="#FF7442"/>
<path d="M406.056 511.688C410.163 511.688 413.492 508.271 413.492 504.057C413.492 499.843 410.163 496.426 406.056 496.426C401.949 496.426 398.62 499.843 398.62 504.057C398.62 508.271 401.949 511.688 406.056 511.688Z" fill="#FF7442"/>
<path d="M420.928 507.873C425.035 507.873 428.365 504.456 428.365 500.242C428.365 496.027 425.035 492.611 420.928 492.611C416.822 492.611 413.492 496.027 413.492 500.242C413.492 504.456 416.822 507.873 420.928 507.873Z" fill="#FF7442"/>
<path d="M430.843 496.426C434.95 496.426 438.279 493.01 438.279 488.795C438.279 484.581 434.95 481.165 430.843 481.165C426.736 481.165 423.407 484.581 423.407 488.795C423.407 493.01 426.736 496.426 430.843 496.426Z" fill="#FF7442"/>
<path d="M370.114 491.339C374.221 491.339 377.55 487.923 377.55 483.708C377.55 479.494 374.221 476.077 370.114 476.077C366.007 476.077 362.677 479.494 362.677 483.708C362.677 487.923 366.007 491.339 370.114 491.339Z" fill="#FF7442"/>
<path d="M361.438 478.621C365.545 478.621 368.874 475.205 368.874 470.99C368.874 466.776 365.545 463.36 361.438 463.36C357.331 463.36 354.002 466.776 354.002 470.99C354.002 475.205 357.331 478.621 361.438 478.621Z" fill="#FF7442"/>
<path d="M356.48 465.903C360.587 465.903 363.917 462.486 363.917 458.272C363.917 454.058 360.587 450.641 356.48 450.641C352.374 450.641 349.044 454.058 349.044 458.272C349.044 462.486 352.374 465.903 356.48 465.903Z" fill="#FF7442"/>
<path d="M351.523 453.185C355.63 453.185 358.959 449.768 358.959 445.554C358.959 441.34 355.63 437.923 351.523 437.923C347.416 437.923 344.086 441.34 344.086 445.554C344.086 449.768 347.416 453.185 351.523 453.185Z" fill="#FF7442"/>
<path d="M346.565 439.195C350.672 439.195 354.002 435.779 354.002 431.564C354.002 427.35 350.672 423.933 346.565 423.933C342.458 423.933 339.129 427.35 339.129 431.564C339.129 435.779 342.458 439.195 346.565 439.195Z" fill="#FF7442"/>
<path d="M436.21 482.017C440.317 482.017 443.646 478.6 443.646 474.386C443.646 470.171 440.317 466.755 436.21 466.755C432.103 466.755 428.773 470.171 428.773 474.386C428.773 478.6 432.103 482.017 436.21 482.017Z" fill="#FF7442"/>
<path d="M443.237 468.447C447.344 468.447 450.673 465.03 450.673 460.816C450.673 456.601 447.344 453.185 443.237 453.185C439.13 453.185 435.801 456.601 435.801 460.816C435.801 465.03 439.13 468.447 443.237 468.447Z" fill="#FF7442"/>
<path d="M449.433 454.457C453.54 454.457 456.87 451.04 456.87 446.826C456.87 442.612 453.54 439.195 449.433 439.195C445.326 439.195 441.997 442.612 441.997 446.826C441.997 451.04 445.326 454.457 449.433 454.457Z" fill="#FF7442"/>
<path d="M308.455 463.563C337.568 466.717 353.295 469.731 359.381 457.178C363.037 449.624 361.797 439.322 360.31 432.149C331.693 361.933 305.678 267.858 310.673 160.772C311.095 151.755 311.714 142.929 312.532 134.306C306.596 133.034 295.801 131.699 285.154 137.015C285.154 137.015 272.116 143.539 263.713 162.26C252.299 187.696 247.626 303.049 252.162 459.073C276.429 460.345 295.788 462.189 308.455 463.563Z" fill="#FAF0B3"/>
<path d="M497.546 235.681C502.33 317.28 459.622 368.903 401.544 378.784C400.54 378.962 399.487 378.899 398.483 378.721C339.588 368.343 294.165 318.73 298.688 235.122C303.15 152.823 336.093 91.5858 401.544 91.4586C456.56 91.3569 492.49 149.402 497.546 235.681Z" fill="#EDBFA6"/>
<path d="M281.56 155.876C289.22 172.841 341.311 168.606 379.26 150.865C414.595 134.344 451.206 99.7636 444.08 82.6324C436.978 65.5521 387.453 68.4137 351.226 83.8534C311.504 100.781 273.826 138.783 281.548 155.876H281.56Z" fill="#FAF0B3"/>
<path d="M503.719 192.681C494.374 197.731 467.69 174.062 452.099 151.806C437.139 130.452 423.841 98.1611 432.169 91.2425C440.337 84.451 468.161 103.058 484.942 125.212C504.462 150.992 513.448 187.429 503.719 192.681Z" fill="#FAF0B3"/>
<path d="M408.745 255.699C408.857 260.392 403.689 264.335 397.182 264.5C390.675 264.666 385.321 261.003 385.197 256.31" stroke="#42210B" stroke-miterlimit="10"/>
<path d="M431.066 296.219C431.066 311.214 413.455 326.742 398.843 326.742C384.23 326.742 362.901 311.214 362.901 296.219" fill="#FFFAFA"/>
<path d="M431.066 296.219C431.066 311.214 413.455 326.742 398.843 326.742C384.23 326.742 362.901 311.214 362.901 296.219" stroke="#E35D6A" stroke-width="2" stroke-miterlimit="10"/>
<path d="M483.046 453.923L449.582 438.661C447.104 431.958 444.625 425.256 442.146 418.554C465.31 347.536 479.947 263.47 470.156 171.417C469.301 163.341 468.272 155.392 467.095 147.596C472.833 136.086 478.15 130.503 483.046 130.872C502.752 132.36 515.567 230.289 521.466 424.658C508.664 434.413 495.848 444.155 483.046 453.91V453.923Z" fill="#FAF0B3"/>
<path d="M443.733 243.58C450.188 243.58 455.421 235.751 455.421 226.093C455.421 216.435 450.188 208.606 443.733 208.606C437.278 208.606 432.046 216.435 432.046 226.093C432.046 235.751 437.278 243.58 443.733 243.58Z" fill="#006837"/>
<path d="M420.804 199.498C420.618 193.648 426.654 190.214 431.277 188.345C442.964 184.008 459.435 184.313 469.549 192.402C471.569 194.119 473.279 196.726 473.056 199.511C472.176 194.068 466.487 191.753 461.951 190.227C452.259 187.404 441.601 187.404 431.909 190.227C427.36 191.753 421.684 194.081 420.804 199.511V199.498Z" fill="#B38B67"/>
<path d="M363.145 211.048C356.006 204.905 348.273 203.659 340.403 209.267C333.289 213.744 324.774 212.726 317.276 209.776C320.374 212.065 324.935 213.286 329 213.604C333.214 213.884 337.453 212.447 340.911 210.145C342.671 209.051 344.332 207.868 346.203 207.169C352.016 204.879 358.349 207.398 363.071 211.149L363.145 211.048Z" fill="#B38B67"/>
<path d="M429.504 210.868C436.643 204.725 444.377 203.479 452.247 209.088C459.361 213.565 467.876 212.547 475.374 209.596C472.275 211.886 467.714 213.107 463.649 213.425C459.435 213.704 455.197 212.267 451.739 209.965C449.979 208.872 448.318 207.689 446.447 206.989C440.634 204.7 434.301 207.218 429.579 210.97L429.504 210.868Z" fill="#B38B67"/>
<path d="M309.533 223.726C294.475 223.726 282.267 235.681 282.267 250.434C282.267 265.187 294.475 277.142 309.533 277.142" fill="#EDBFA6"/>
<path d="M290.942 277.142C295.049 277.142 298.378 273.726 298.378 269.511C298.378 265.297 295.049 261.88 290.942 261.88C286.835 261.88 283.506 265.297 283.506 269.511C283.506 273.726 286.835 277.142 290.942 277.142Z" fill="#FF7442"/>
<path d="M365.305 423.399C356.629 433.154 347.953 442.896 339.278 452.651C332.994 450.832 312.73 444.066 299.618 423.399C293.148 413.212 290.707 403.241 289.703 396.691C306.645 395 323.575 393.296 340.517 391.604C348.784 402.198 357.038 412.805 365.305 423.399Z" fill="#FAF0B3"/>
<path d="M351.25 244.088C357.705 244.088 362.938 236.258 362.938 226.6C362.938 216.942 357.705 209.113 351.25 209.113C344.796 209.113 339.563 216.942 339.563 226.6C339.563 236.258 344.796 244.088 351.25 244.088Z" fill="#006837"/>
<path d="M320.688 199.549C320.502 193.699 326.513 190.227 331.148 188.344C341.125 184.618 352.502 184.618 362.492 188.344C367.127 190.227 373.138 193.711 372.952 199.562C372.084 194.118 366.408 191.766 361.86 190.227C352.168 187.378 341.484 187.378 331.78 190.227C327.231 191.766 321.555 194.118 320.688 199.562V199.549Z" fill="#B38B67"/>
</g>
</svg>
