<svg width="395" height="395" viewBox="0 0 395 395" fill="none" xmlns="http://www.w3.org/2000/svg">
<mask id="mask0_280_287" style="mask-type:alpha" maskUnits="userSpaceOnUse" x="0" y="0" width="395" height="395">
<rect width="395" height="395" fill="#D9D9D9"/>
</mask>
<g mask="url(#mask0_280_287)">
<path d="M281.497 192.8H132.629C126.686 192.8 121.867 197.744 121.867 203.843V255.378C121.867 261.477 126.686 266.421 132.629 266.421H281.497C287.441 266.421 292.259 261.477 292.259 255.378V203.843C292.259 197.744 287.441 192.8 281.497 192.8Z" fill="#BAB186"/>
<path d="M229.956 197.825H180.505C178.598 197.825 177.052 199.411 177.052 201.368V291.585C177.052 293.542 178.598 295.128 180.505 295.128H229.956C231.863 295.128 233.409 293.542 233.409 291.585V201.368C233.409 199.411 231.863 197.825 229.956 197.825Z" fill="#BF9D8E"/>
<path d="M153.883 452.884C128.97 452.664 104.065 452.452 79.1524 452.231C79.0986 414.648 79.0448 377.064 79 339.472C79 308.992 81.1074 266.983 97.5816 266.983H152.681" fill="#EDBFA6"/>
<path d="M268.233 441.841C289.604 441.768 310.983 441.685 332.354 441.611C332.569 405.942 332.785 370.282 333 334.612C333 305.79 331.179 266.071 316.929 266.071H269.273" fill="#EDBFA6"/>
<path d="M271.525 266.531H136.216C126.28 266.531 118.226 274.797 118.226 284.992V474.455C118.226 484.651 126.28 492.916 136.216 492.916H271.525C281.46 492.916 289.514 484.651 289.514 474.455V284.992C289.514 274.797 281.46 266.531 271.525 266.531Z" fill="#7F4EC3"/>
<path d="M193.898 325.355C196.869 325.355 199.278 322.883 199.278 319.833C199.278 316.784 196.869 314.312 193.898 314.312C190.926 314.312 188.517 316.784 188.517 319.833C188.517 322.883 190.926 325.355 193.898 325.355Z" fill="#FF7442"/>
<path d="M202.866 330.876C205.838 330.876 208.247 328.404 208.247 325.355C208.247 322.305 205.838 319.833 202.866 319.833C199.894 319.833 197.485 322.305 197.485 325.355C197.485 328.404 199.894 330.876 202.866 330.876Z" fill="#FF7442"/>
<path d="M213.628 330.876C216.599 330.876 219.008 328.404 219.008 325.355C219.008 322.305 216.599 319.833 213.628 319.833C210.656 319.833 208.247 322.305 208.247 325.355C208.247 328.404 210.656 330.876 213.628 330.876Z" fill="#FF7442"/>
<path d="M224.389 328.115C227.361 328.115 229.77 325.643 229.77 322.594C229.77 319.544 227.361 317.072 224.389 317.072C221.417 317.072 219.008 319.544 219.008 322.594C219.008 325.643 221.417 328.115 224.389 328.115Z" fill="#FF7442"/>
<path d="M231.563 319.833C234.535 319.833 236.944 317.361 236.944 314.311C236.944 311.262 234.535 308.79 231.563 308.79C228.592 308.79 226.183 311.262 226.183 314.311C226.183 317.361 228.592 319.833 231.563 319.833Z" fill="#FF7442"/>
<path d="M187.62 316.152C190.592 316.152 193.001 313.68 193.001 310.63C193.001 307.581 190.592 305.109 187.62 305.109C184.649 305.109 182.24 307.581 182.24 310.63C182.24 313.68 184.649 316.152 187.62 316.152Z" fill="#FF7442"/>
<path d="M181.343 306.95C184.314 306.95 186.723 304.477 186.723 301.428C186.723 298.378 184.314 295.906 181.343 295.906C178.371 295.906 175.962 298.378 175.962 301.428C175.962 304.477 178.371 306.95 181.343 306.95Z" fill="#FF7442"/>
<path d="M177.756 297.747C180.727 297.747 183.136 295.275 183.136 292.225C183.136 289.176 180.727 286.704 177.756 286.704C174.784 286.704 172.375 289.176 172.375 292.225C172.375 295.275 174.784 297.747 177.756 297.747Z" fill="#FF7442"/>
<path d="M174.168 288.544C177.14 288.544 179.549 286.072 179.549 283.023C179.549 279.973 177.14 277.501 174.168 277.501C171.196 277.501 168.787 279.973 168.787 283.023C168.787 286.072 171.196 288.544 174.168 288.544Z" fill="#FF7442"/>
<path d="M170.581 278.421C173.553 278.421 175.962 275.949 175.962 272.9C175.962 269.85 173.553 267.378 170.581 267.378C167.609 267.378 165.2 269.85 165.2 272.9C165.2 275.949 167.609 278.421 170.581 278.421Z" fill="#FF7442"/>
<path d="M235.447 309.406C238.418 309.406 240.828 306.934 240.828 303.885C240.828 300.835 238.418 298.363 235.447 298.363C232.475 298.363 230.066 300.835 230.066 303.885C230.066 306.934 232.475 309.406 235.447 309.406Z" fill="#FF7442"/>
<path d="M240.531 299.587C243.503 299.587 245.912 297.115 245.912 294.066C245.912 291.016 243.503 288.544 240.531 288.544C237.56 288.544 235.151 291.016 235.151 294.066C235.151 297.115 237.56 299.587 240.531 299.587Z" fill="#FF7442"/>
<path d="M245.015 289.464C247.987 289.464 250.396 286.992 250.396 283.943C250.396 280.893 247.987 278.421 245.015 278.421C242.044 278.421 239.635 280.893 239.635 283.943C239.635 286.992 242.044 289.464 245.015 289.464Z" fill="#FF7442"/>
<path d="M143.005 296.053C164.071 298.336 175.451 300.517 179.854 291.434C182.5 285.967 181.603 278.513 180.527 273.323C159.82 222.515 140.996 154.444 144.61 76.9578C144.915 70.4331 145.363 64.0465 145.955 57.8072C141.66 56.8869 133.848 55.9206 126.145 59.7673C126.145 59.7673 116.711 64.4883 110.63 78.0345C102.371 96.4397 98.9899 179.907 102.272 292.805C119.831 293.725 133.839 295.06 143.005 296.053Z" fill="#FAF0B3"/>
<path d="M279.829 131.161C283.291 190.205 252.387 227.558 210.363 234.709C209.637 234.838 208.875 234.792 208.148 234.663C165.532 227.154 132.665 191.254 135.938 130.756C139.166 71.2062 163.003 26.8956 210.363 26.8036C250.172 26.73 276.17 68.7307 279.829 131.161Z" fill="#EDBFA6"/>
<path d="M123.544 73.4148C129.086 85.6911 166.779 82.6267 194.239 69.789C219.806 57.8348 246.298 32.8129 241.141 20.417C236.003 8.05792 200.167 10.1285 173.953 21.3005C145.211 33.5492 117.948 61.0465 123.535 73.4148H123.544Z" fill="#FAF0B3"/>
<path d="M284.295 100.047C277.533 103.701 258.225 86.5745 246.944 70.47C236.119 55.0188 226.497 31.6534 232.523 26.6472C238.433 21.733 258.566 35.1964 270.709 51.2273C284.833 69.881 291.335 96.2465 284.295 100.047Z" fill="#FAF0B3"/>
<path d="M215.574 145.646C215.655 149.042 211.915 151.895 207.207 152.014C202.499 152.134 198.624 149.484 198.535 146.088" stroke="#42210B" stroke-miterlimit="10"/>
<path d="M231.725 174.966C231.725 185.815 218.981 197.052 208.408 197.052C197.835 197.052 182.401 185.815 182.401 174.966" fill="#FFFAFA"/>
<path d="M231.725 174.966C231.725 185.815 218.981 197.052 208.408 197.052C197.835 197.052 182.401 185.815 182.401 174.966" stroke="#E35D6A" stroke-width="2" stroke-miterlimit="10"/>
<path d="M269.336 289.078L245.123 278.035C243.329 273.185 241.536 268.335 239.742 263.485C256.503 212.098 267.094 151.269 260.01 84.6604C259.391 78.8167 258.647 73.0651 257.795 67.4239C261.947 59.0955 265.794 55.0556 269.336 55.3225C283.596 56.3992 292.868 127.259 297.137 267.903C287.873 274.961 278.6 282.01 269.336 289.069V289.078Z" fill="#FAF0B3"/>
<path d="M240.89 136.877C245.561 136.877 249.347 131.212 249.347 124.223C249.347 117.235 245.561 111.57 240.89 111.57C236.22 111.57 232.434 117.235 232.434 124.223C232.434 131.212 236.22 136.877 240.89 136.877Z" fill="#006837"/>
<path d="M224.299 104.98C224.165 100.747 228.532 98.2618 231.877 96.9091C240.334 93.771 252.252 93.9918 259.57 99.8447C261.032 101.087 262.27 102.974 262.108 104.989C261.471 101.05 257.355 99.3754 254.073 98.2711C247.06 96.2281 239.347 96.2281 232.334 98.2711C229.043 99.3754 224.936 101.059 224.299 104.989V104.98Z" fill="#B38B67"/>
<path d="M182.578 113.337C177.413 108.892 171.817 107.99 166.122 112.048C160.974 115.288 154.813 114.551 149.388 112.416C151.63 114.073 154.93 114.956 157.871 115.186C160.92 115.389 163.988 114.349 166.49 112.683C167.763 111.892 168.965 111.036 170.319 110.53C174.525 108.873 179.108 110.695 182.524 113.41L182.578 113.337Z" fill="#B38B67"/>
<path d="M230.595 113.207C235.76 108.762 241.356 107.86 247.051 111.919C252.199 115.158 258.36 114.422 263.785 112.287C261.543 113.943 258.243 114.827 255.301 115.057C252.252 115.259 249.185 114.219 246.683 112.554C245.41 111.762 244.208 110.906 242.854 110.4C238.648 108.744 234.065 110.566 230.649 113.281L230.595 113.207Z" fill="#B38B67"/>
<path d="M143.785 122.511C132.889 122.511 124.055 131.161 124.055 141.836C124.055 152.511 132.889 161.162 143.785 161.162" fill="#EDBFA6"/>
<path d="M130.333 161.162C133.305 161.162 135.714 158.69 135.714 155.64C135.714 152.591 133.305 150.119 130.333 150.119C127.361 150.119 124.952 152.591 124.952 155.64C124.952 158.69 127.361 161.162 130.333 161.162Z" fill="#FF7442"/>
<path d="M184.141 266.992C177.863 274.05 171.586 281.099 165.308 288.158C160.761 286.842 146.099 281.946 136.61 266.992C131.929 259.62 130.162 252.406 129.436 247.666C141.695 246.442 153.946 245.209 166.205 243.985C172.186 251.651 178.159 259.326 184.141 266.992Z" fill="#FAF0B3"/>
<path d="M173.971 137.244C178.642 137.244 182.428 131.579 182.428 124.59C182.428 117.602 178.642 111.937 173.971 111.937C169.3 111.937 165.514 117.602 165.514 124.59C165.514 131.579 169.3 137.244 173.971 137.244Z" fill="#006837"/>
<path d="M151.856 105.017C151.722 100.783 156.071 98.271 159.425 96.9091C166.644 94.2127 174.877 94.2127 182.105 96.9091C185.459 98.271 189.809 100.793 189.674 105.026C189.046 101.087 184.939 99.3846 181.648 98.271C174.635 96.2097 166.904 96.2097 159.882 98.271C156.591 99.3846 152.484 101.087 151.856 105.026V105.017Z" fill="#B38B67"/>
</g>
</svg>
